<mxfile host="65bd71144e">
    <diagram id="-72W-1_LjuiYcz1S8hm-" name="Page-1">
        <mxGraphModel dx="1053" dy="578" grid="1" gridSize="10" guides="1" tooltips="1" connect="1" arrows="1" fold="1" page="1" pageScale="1" pageWidth="850" pageHeight="1100" math="0" shadow="0">
            <root>
                <mxCell id="0"/>
                <mxCell id="1" parent="0"/>
                <mxCell id="26" style="edgeStyle=orthogonalEdgeStyle;html=1;exitX=1;exitY=0.5;exitDx=0;exitDy=0;entryX=0;entryY=0.5;entryDx=0;entryDy=0;fontSize=16;" parent="1" source="2" target="3" edge="1">
                    <mxGeometry relative="1" as="geometry"/>
                </mxCell>
                <mxCell id="2" value="a" style="rounded=0;whiteSpace=wrap;html=1;fontSize=16;strokeWidth=2;fillColor=#99FF99;" parent="1" vertex="1">
                    <mxGeometry x="40" y="80" width="40" height="40" as="geometry"/>
                </mxCell>
                <mxCell id="3" value="RefCount" style="rounded=0;whiteSpace=wrap;html=1;fontSize=16;fillColor=#FFFFCC;" parent="1" vertex="1">
                    <mxGeometry x="160" y="80" width="120" height="40" as="geometry"/>
                </mxCell>
                <mxCell id="4" value="RefCell" style="rounded=0;whiteSpace=wrap;html=1;fontSize=16;fillColor=#FFFFCC;" parent="1" vertex="1">
                    <mxGeometry x="280" y="80" width="120" height="40" as="geometry"/>
                </mxCell>
                <mxCell id="11" style="edgeStyle=none;html=1;exitX=0.5;exitY=1;exitDx=0;exitDy=0;entryX=0.5;entryY=0;entryDx=0;entryDy=0;fontSize=16;" parent="1" source="5" target="10" edge="1">
                    <mxGeometry relative="1" as="geometry"/>
                </mxCell>
                <mxCell id="5" value="Vec" style="rounded=0;whiteSpace=wrap;html=1;fontSize=16;fillColor=#FFFFCC;" parent="1" vertex="1">
                    <mxGeometry x="400" y="80" width="120" height="40" as="geometry"/>
                </mxCell>
                <mxCell id="14" style="edgeStyle=orthogonalEdgeStyle;html=1;exitX=0.5;exitY=1;exitDx=0;exitDy=0;entryX=0.5;entryY=0;entryDx=0;entryDy=0;fontSize=16;" parent="1" source="10" target="7" edge="1">
                    <mxGeometry relative="1" as="geometry"/>
                </mxCell>
                <mxCell id="20" style="edgeStyle=orthogonalEdgeStyle;html=1;exitX=0.5;exitY=1;exitDx=0;exitDy=0;fontSize=16;entryX=0.5;entryY=0;entryDx=0;entryDy=0;" parent="1" source="12" target="17" edge="1">
                    <mxGeometry relative="1" as="geometry">
                        <mxPoint x="380" y="430" as="targetPoint"/>
                        <Array as="points">
                            <mxPoint x="580" y="300"/>
                            <mxPoint x="300" y="300"/>
                        </Array>
                    </mxGeometry>
                </mxCell>
                <mxCell id="25" style="edgeStyle=orthogonalEdgeStyle;html=1;exitX=0.5;exitY=1;exitDx=0;exitDy=0;entryX=0.5;entryY=0;entryDx=0;entryDy=0;fontSize=16;" parent="1" source="13" target="22" edge="1">
                    <mxGeometry relative="1" as="geometry">
                        <Array as="points">
                            <mxPoint x="700" y="380"/>
                            <mxPoint x="500" y="380"/>
                        </Array>
                    </mxGeometry>
                </mxCell>
                <mxCell id="15" value="" style="group;fillColor=#FFFFCC;" parent="1" vertex="1" connectable="0">
                    <mxGeometry x="120" y="240" width="360" height="40" as="geometry"/>
                </mxCell>
                <mxCell id="7" value="RefCount" style="rounded=0;whiteSpace=wrap;html=1;fontSize=16;fillColor=#FFFFCC;" parent="15" vertex="1">
                    <mxGeometry width="120" height="40" as="geometry"/>
                </mxCell>
                <mxCell id="8" value="RefCell" style="rounded=0;whiteSpace=wrap;html=1;fontSize=16;fillColor=#FFFFCC;" parent="15" vertex="1">
                    <mxGeometry x="120" width="120" height="40" as="geometry"/>
                </mxCell>
                <mxCell id="9" value="Value(1)" style="rounded=0;whiteSpace=wrap;html=1;fontSize=16;fillColor=#FFFFCC;" parent="15" vertex="1">
                    <mxGeometry x="240" width="120" height="40" as="geometry"/>
                </mxCell>
                <mxCell id="16" value="" style="group;fillColor=#FFFFCC;" parent="1" vertex="1" connectable="0">
                    <mxGeometry x="240" y="320" width="360" height="40" as="geometry"/>
                </mxCell>
                <mxCell id="17" value="RefCount" style="rounded=0;whiteSpace=wrap;html=1;fontSize=16;fillColor=#FFFFCC;" parent="16" vertex="1">
                    <mxGeometry width="120" height="40" as="geometry"/>
                </mxCell>
                <mxCell id="18" value="RefCell" style="rounded=0;whiteSpace=wrap;html=1;fontSize=16;fillColor=#FFFFCC;" parent="16" vertex="1">
                    <mxGeometry x="120" width="120" height="40" as="geometry"/>
                </mxCell>
                <mxCell id="19" value="Value(2)" style="rounded=0;whiteSpace=wrap;html=1;fontSize=16;fillColor=#FFFFCC;" parent="16" vertex="1">
                    <mxGeometry x="240" width="120" height="40" as="geometry"/>
                </mxCell>
                <mxCell id="21" value="" style="group;fillColor=#FFFFCC;" parent="1" vertex="1" connectable="0">
                    <mxGeometry x="440" y="400" width="360" height="40" as="geometry"/>
                </mxCell>
                <mxCell id="22" value="RefCount" style="rounded=0;whiteSpace=wrap;html=1;fontSize=16;fillColor=#FFFFCC;" parent="21" vertex="1">
                    <mxGeometry width="120" height="40" as="geometry"/>
                </mxCell>
                <mxCell id="23" value="RefCell" style="rounded=0;whiteSpace=wrap;html=1;fontSize=16;fillColor=#FFFFCC;" parent="21" vertex="1">
                    <mxGeometry x="120" width="120" height="40" as="geometry"/>
                </mxCell>
                <mxCell id="24" value="Value(3)" style="rounded=0;whiteSpace=wrap;html=1;fontSize=16;fillColor=#FFFFCC;" parent="21" vertex="1">
                    <mxGeometry x="240" width="120" height="40" as="geometry"/>
                </mxCell>
                <mxCell id="28" style="edgeStyle=orthogonalEdgeStyle;html=1;exitX=1;exitY=0.5;exitDx=0;exitDy=0;entryX=0;entryY=0.5;entryDx=0;entryDy=0;fontSize=16;" parent="1" source="27" target="22" edge="1">
                    <mxGeometry relative="1" as="geometry"/>
                </mxCell>
                <mxCell id="27" value="a[2]" style="rounded=0;whiteSpace=wrap;html=1;fontSize=16;strokeWidth=2;fillColor=#99FF99;" parent="1" vertex="1">
                    <mxGeometry x="40" y="400" width="40" height="40" as="geometry"/>
                </mxCell>
                <mxCell id="29" value="" style="group" vertex="1" connectable="0" parent="1">
                    <mxGeometry x="400" y="160" width="360" height="40" as="geometry"/>
                </mxCell>
                <mxCell id="10" value="Rc" style="rounded=0;whiteSpace=wrap;html=1;fontSize=16;fillColor=#FFFFCC;" parent="29" vertex="1">
                    <mxGeometry width="120" height="40" as="geometry"/>
                </mxCell>
                <mxCell id="12" value="Rc" style="rounded=0;whiteSpace=wrap;html=1;fontSize=16;fillColor=#FFFFCC;" parent="29" vertex="1">
                    <mxGeometry x="120" width="120" height="40" as="geometry"/>
                </mxCell>
                <mxCell id="13" value="Rc" style="rounded=0;whiteSpace=wrap;html=1;fontSize=16;fillColor=#FFFFCC;" parent="29" vertex="1">
                    <mxGeometry x="240" width="120" height="40" as="geometry"/>
                </mxCell>
            </root>
        </mxGraphModel>
    </diagram>
</mxfile>